<?xml version="1.0" encoding="UTF-8" standalone="no"?>
<svg
   xmlns:dc="http://purl.org/dc/elements/1.1/"
   xmlns:cc="http://creativecommons.org/ns#"
   xmlns:rdf="http://www.w3.org/1999/02/22-rdf-syntax-ns#"
   xmlns:svg="http://www.w3.org/2000/svg"
   xmlns="http://www.w3.org/2000/svg"
   xmlns:sodipodi="http://sodipodi.sourceforge.net/DTD/sodipodi-0.dtd"
   xmlns:inkscape="http://www.inkscape.org/namespaces/inkscape"
   viewBox="0 0 300 422.84876"
   version="1.1"
   x="0px"
   y="0px"
   id="svg3771"
   sodipodi:docname="Logo site 4.svg"
   width="300"
   height="422.84875"
   inkscape:version="0.92.3 (2405546, 2018-03-11)">
  <metadata
     id="metadata3777">
    <rdf:RDF>
      <cc:Work
         rdf:about="">
        <dc:format>image/svg+xml</dc:format>
        <dc:type
           rdf:resource="http://purl.org/dc/dcmitype/StillImage" />
        <dc:title />
      </cc:Work>
    </rdf:RDF>
  </metadata>
  <defs
     id="defs3775" />
  <sodipodi:namedview
     pagecolor="#ffffff"
     bordercolor="#666666"
     borderopacity="1"
     objecttolerance="10"
     gridtolerance="10"
     guidetolerance="10"
     inkscape:pageopacity="0"
     inkscape:pageshadow="2"
     inkscape:window-width="1366"
     inkscape:window-height="705"
     id="namedview3773"
     showgrid="false"
     inkscape:zoom="0.70710678"
     inkscape:cx="125.63687"
     inkscape:cy="216.71046"
     inkscape:window-x="-8"
     inkscape:window-y="-8"
     inkscape:window-maximized="1"
     inkscape:current-layer="svg3771" />
  <g
     transform="matrix(4.6865264,0,0,4.6983175,-84.326319,-4497.9914)"
     id="g3823"
     style="fill:#aa0000">
    <path
       inkscape:connector-curvature="0"
       d="m 49.999927,957.36216 c -17.673599,0 -32.006575,14.33298 -32.006575,32.00656 0,17.67368 32.976814,57.99348 32.976814,57.99348 0,0 31.036482,-40.3198 31.036482,-57.99348 0,-17.67358 -14.333079,-32.00656 -32.006721,-32.00656 z m 0,6.49394 c 14.09052,0 25.512732,11.42226 25.512732,25.51262 0,14.09048 -11.422212,25.51278 -25.512732,25.51278 -14.090373,0 -25.512632,-11.4223 -25.512632,-25.51278 0,-14.09036 11.422259,-25.51262 25.512632,-25.51262 z"
       style="fill:#aa0000;fill-opacity:1;fill-rule:nonzero;stroke:none"
       id="path3813" />
    <path
       inkscape:connector-curvature="0"
       d="m 49.625062,973.49224 -0.385891,0.66153 0.220509,0.38589 h -0.198458 l -0.74973,1.27895 0.24256,0.42999 h -0.595374 l -1.852128,3.18635 0.50717,0.87102 h -0.74973 v 0.99229 h 7.872021 v -0.99229 h -0.74973 l 0.50717,-0.87102 -1.841249,-3.18635 h -0.6064 l 0.24256,-0.42999 -0.738705,-1.27895 h -0.198458 l 0.220509,-0.38589 -0.396916,-0.66153 h -0.771781 z m -0.48512,4.43223 h 1.753046 l 0.87101,1.51048 -0.50717,0.87102 h -2.491751 l -0.496145,-0.87102 z"
       style="fill:#aa0000;fill-opacity:1;fill-rule:nonzero;stroke:none"
       id="path3815" />
    <path
       inkscape:connector-curvature="0"
       d="m 49.999927,973.6907 v -1.59869"
       style="fill:#aa0000;stroke:#000000;stroke-width:0.84666044px;stroke-linecap:butt;stroke-linejoin:miter;stroke-miterlimit:4;stroke-dasharray:none;stroke-opacity:1"
       stroke-miterlimit="4"
       id="path3817" />
    <path
       inkscape:connector-curvature="0"
       d="m 46.901924,985.44384 -2.238166,19.70226 h -1.157672 v 1.4995 h 12.987829 v -1.4995 h -1.157672 l -2.006632,-19.70226 z m 2.469553,3.92488 h 1.2569 l 0.617425,1.08052 -0.617425,1.08048 h -1.2569 l -0.617425,-1.08048 z m 0,4.10146 h 1.2569 l 0.617425,1.09152 -0.617425,1.08053 h -1.2569 l -0.617425,-1.08053 z m 0.62845,8.07062 2.094835,1.2018 v 2.4035 h -4.18967 v -2.4035 z"
       style="fill:#aa0000;fill-opacity:1;fill-rule:nonzero;stroke:none"
       id="path3819" />
    <path
       inkscape:connector-curvature="0"
       d="m 45.259132,981.95978 v 0.78279 h 0.551273 l 1.345104,2.0287 h 5.700009 l 1.334078,-2.0287 h 0.551273 v -0.78279 z m 1.587664,0.78279 h 1.422136 l 0.385891,1.2569 H 47.66268 Z m 2.26007,0 h 1.786122 l -0.38589,1.2569 h -1.014342 z m 2.624056,0 h 1.433308 l -0.826909,1.2569 h -0.99229 z"
       style="fill:#aa0000;fill-opacity:1;fill-rule:nonzero;stroke:none"
       id="path3821" />
  </g>
  <path
     style="fill:#aa0000;stroke-width:0.00390625"
     d="m 144.53016,171.90387 c 0.0655,-0.001 0.12178,-8.3e-4 0.125,7.2e-4 0.003,0.001 -0.0504,0.002 -0.11914,0.002 l -0.125,-7.2e-4 z"
     id="path3871"
     inkscape:connector-curvature="0" />
  <path
     style="fill:#aa0000;stroke-width:0.00390625"
     d="m 144.43739,171.90474 c 0.0145,-7.5e-4 0.0382,-7.5e-4 0.0527,0 0.0145,7.5e-4 0.003,0.001 -0.0264,0.001 -0.029,0 -0.0409,-6.2e-4 -0.0264,-0.001 z"
     id="path3873"
     inkscape:connector-curvature="0" />
  <path
     style="fill:#aa0000;stroke-width:0.00390625"
     d="m 144.53016,171.90364 c 0.0634,-0.001 0.11787,-0.001 0.1211,5.8e-4 0.003,0.002 -0.0486,0.003 -0.11524,0.003 l -0.12109,-5.7e-4 z"
     id="path3875"
     inkscape:connector-curvature="0" />
  <path
     style="fill:#aa0000;stroke-width:0.00390625"
     d=""
     id="path3889"
     inkscape:connector-curvature="0" />
  <path
     style="fill:#aa0000;stroke-width:0.00390625"
     d=""
     id="path3891"
     inkscape:connector-curvature="0" />
  <path
     style="fill:#aa0000;stroke-width:0.00390625"
     d=""
     id="path3893"
     inkscape:connector-curvature="0" />
  <path
     style="fill:#aa0000;stroke-width:0.16704313"
     d="m 148.02866,72.98039 v -3.67495 h 1.921 1.921 v 3.67495 3.67495 h -1.921 -1.921 z"
     id="path4018"
     inkscape:connector-curvature="0" />
  <path
     style="fill:#aa0000;stroke-width:0.16704313"
     d="m 131.65844,110.15314 v -2.24942 l 1.75367,-0.0469 1.75367,-0.0469 -1.16643,-2.00453 c -0.6415,-1.10248 -1.12592,-2.11527 -1.07648,-2.25064 0.0499,-0.13608 1.97604,-3.49921 4.2811,-7.47518 l 4.19104,-7.22906 h 1.39579 c 0.76774,0 1.39579,-0.0469 1.39579,-0.10432 0,-0.0575 -0.23843,-0.53778 -0.52977,-1.0677 l -0.52977,-0.96354 1.71239,-2.94136 c 1.59981,-2.74794 1.74447,-2.94134 2.20017,-2.94134 0.26821,0 0.48774,-0.0393 0.48774,-0.0862 0,-0.0469 -0.22422,-0.48336 -0.49832,-0.96898 l -0.49818,-0.8828 0.74885,-1.27922 0.74884,-1.27922 V 72.821 69.30613 h 1.921 1.921 v 3.66965 3.66964 l -1.96276,0.0529 -1.96275,0.0529 2.04628,0.0363 c 1.544,0.0272 2.04673,-0.0151 2.04815,-0.17281 0.001,-0.11491 0.33565,0.35212 0.74356,1.03792 l 0.74174,1.24656 -0.49303,0.86179 c -0.27124,0.47398 -0.49303,0.90895 -0.49303,0.96671 0,0.0575 0.21665,0.10432 0.48138,0.10432 0.44828,0 0.59796,0.20259 2.17152,2.93794 l 1.69011,2.93795 -0.59902,1.07103 -0.59901,1.07103 h 1.48726 1.48726 l 4.27971,7.42893 4.27971,7.42893 -1.15887,1.9964 c -0.63742,1.09795 -1.15888,2.03966 -1.15888,2.09254 0,0.0529 0.78922,0.0968 1.75396,0.0968 h 1.75394 v 2.25509 2.25508 h -18.37473 -18.37475 z m 25.50572,-4.36046 1.20091,-2.08756 -2.04468,-3.54406 -2.04469,-3.54405 -4.18116,-0.0438 -4.18116,-0.0438 -2.05197,3.58828 -2.05199,3.58831 0.54142,0.9664 c 0.29784,0.53159 0.83593,1.47381 1.19591,2.09399 l 0.6545,1.12758 5.88091,-0.006 5.8809,-0.006 1.20091,-2.08756 z"
     id="path4020"
     inkscape:connector-curvature="0" />
  <path
     style="fill:#aa0000;stroke-width:0.16704313"
     d="m 131.65844,110.15314 v -2.24942 l 1.74502,-0.0469 1.74501,-0.0469 -1.15706,-2.00453 c -0.63636,-1.10248 -1.11654,-2.11726 -1.0671,-2.25507 0.0499,-0.13759 1.97182,-3.50165 4.27188,-7.47518 l 4.18192,-7.22463 h 1.40425 c 0.77243,0 1.40426,-0.0469 1.40426,-0.10432 0,-0.0575 -0.23253,-0.51132 -0.51677,-1.00813 -0.31463,-0.54973 -0.47443,-1.01525 -0.40867,-1.18957 0.059,-0.15754 0.82505,-1.50797 1.70132,-3.0009 1.47939,-2.52055 1.62795,-2.71445 2.0791,-2.71445 0.26716,0 0.48578,-0.0393 0.48578,-0.0862 0,-0.0469 -0.22739,-0.48895 -0.50528,-0.98138 l -0.50528,-0.89534 0.75595,-1.27847 0.7558,-1.27846 v -3.5031 -3.50309 h 1.921 1.921 v 3.67495 3.67495 l -1.12758,0.0318 -1.12757,0.0318 1.06876,0.0605 c 0.59932,0.0333 1.14481,-0.0166 1.24188,-0.11339 0.11944,-0.11944 0.39491,0.20108 0.88794,1.03263 l 0.71482,1.20559 -0.49499,0.8772 c -0.2723,0.48245 -0.495,0.91591 -0.495,0.96323 0,0.0469 0.21802,0.0862 0.48457,0.0862 0.45221,0 0.59765,0.19625 2.17848,2.93926 l 1.69386,2.93925 -0.508,0.90018 c -0.2794,0.49515 -0.508,0.97654 -0.508,1.06983 0,0.10129 0.56243,0.16963 1.39488,0.16963 h 1.39488 l 4.28153,7.42838 4.28151,7.42837 -1.16613,1.9967 c -0.64135,1.09824 -1.16613,2.04005 -1.16613,2.09307 0,0.0529 0.78921,0.0968 1.75396,0.0968 h 1.75394 v 2.2551 2.25507 h -18.37473 -18.37476 z m 25.49257,-4.36321 1.18775,-2.09204 -2.03201,-3.54045 -2.03201,-3.54043 -4.17025,-0.0438 -4.17025,-0.0438 -2.05808,3.58948 -2.05807,3.58948 0.54277,0.9652 c 0.29845,0.53083 0.83472,1.47259 1.19168,2.09277 l 0.64891,1.12758 5.88091,-0.005 5.8809,-0.005 1.18775,-2.09203 z"
     id="path4022"
     inkscape:connector-curvature="0" />
  <path
     style="fill:#aa0000;stroke-width:0.16704313"
     d="m 131.65844,110.1475 v -2.25509 h 1.67042 c 0.99015,0 1.67044,-0.068 1.67044,-0.16525 0,-0.0907 -0.49953,-1.03082 -1.11004,-2.08862 l -1.11004,-1.92335 1.85012,-3.21501 c 1.01751,-1.76825 2.9402,-5.09424 4.27251,-7.39109 l 2.42242,-4.17607 1.43117,-0.0484 c 0.78709,-0.0272 1.43116,-0.0922 1.43116,-0.14666 0,-0.0544 -0.23464,-0.5086 -0.52145,-1.00995 -0.6223,-1.08781 -0.71831,-0.78724 1.38808,-4.3493 1.40652,-2.37835 1.53945,-2.54741 2.00423,-2.54741 0.27381,0 0.47232,-0.0559 0.44118,-0.12548 -0.0317,-0.0695 -0.26307,-0.51753 -0.51526,-0.9971 l -0.45856,-0.87177 0.75187,-1.27181 0.75187,-1.27181 v -3.49411 -3.4941 h 1.92099 1.92101 v 3.70278 c 0,2.03654 0.0484,3.65394 0.10885,3.59424 0.059,-0.059 0.43921,0.42272 0.84319,1.07193 l 0.73463,1.1805 -0.50921,0.90215 c -0.28,0.49621 -0.5092,0.94086 -0.5092,0.98818 0,0.0469 0.21862,0.0862 0.48577,0.0862 0.45342,0 0.59856,0.19488 2.18089,2.9292 l 1.69507,2.92921 -0.51042,0.94237 c -0.28076,0.51843 -0.51042,1.00435 -0.51042,1.0798 0,0.0756 0.63167,0.13758 1.40365,0.13758 h 1.40365 l 4.27899,7.43165 4.27897,7.43165 -1.17248,2.01435 c -0.64483,1.10792 -1.17248,2.04833 -1.17248,2.08983 0,0.0408 0.78921,0.0756 1.75396,0.0756 h 1.75394 v 2.25509 2.25508 h -18.37473 -18.37476 z m 25.42165,-4.2596 c 0.61806,-1.05652 1.12576,-2.03375 1.12818,-2.17156 0.002,-0.13758 -0.88794,-1.79154 -1.97846,-3.67495 l -1.98283,-3.42438 -4.15318,-0.0438 -4.15318,-0.0438 -2.05986,3.59181 -2.05986,3.59181 1.19667,2.09203 1.19667,2.09202 5.87107,-0.0439 5.87106,-0.0438 z"
     id="path4024"
     inkscape:connector-curvature="0" />
  <path
     style="fill:#aa0000;stroke-width:0.16704313"
     d="m 131.65844,110.1475 v -2.25509 h 1.57705 c 0.86738,0 1.61855,-0.0665 1.66927,-0.14968 0.0514,-0.0816 -0.39551,-1.00284 -0.9915,-2.04628 -0.59599,-1.04337 -1.08419,-1.94591 -1.08464,-2.0056 -5e-4,-0.059 1.90719,-3.40473 4.2393,-7.43342 l 4.2402,-7.32488 1.23039,-0.0454 c 1.75207,-0.065 1.73826,-0.0499 1.12652,-1.13453 -0.63062,-1.11729 -0.7177,-0.84651 1.45505,-4.51977 1.21406,-2.05238 1.48046,-2.40199 1.83057,-2.40199 0.51767,0 0.51405,-0.18067 -0.0242,-1.16855 l -0.43331,-0.79617 0.76744,-1.31097 0.76744,-1.31097 v -3.46963 -3.46964 h 1.92099 1.92101 v 3.68481 c 0,2.02665 0.0605,3.64784 0.13304,3.60267 0.0726,-0.0454 0.44843,0.44238 0.83412,1.08358 l 0.70122,1.16568 -0.45735,0.86934 c -0.25158,0.47821 -0.4829,0.92574 -0.51405,0.99468 -0.0318,0.0695 0.16918,0.12549 0.44511,0.12549 0.47352,0 0.59674,0.16328 2.19516,2.90884 l 1.69348,2.90884 -0.51511,1.02023 c -0.59493,1.17838 -0.61806,1.15358 1.13272,1.21829 l 1.22177,0.0454 4.25706,7.38324 4.25708,7.38323 -1.09386,1.90512 c -0.60158,1.04775 -1.09386,1.99124 -1.09386,2.09647 0,0.13153 0.52675,0.1914 1.67042,0.1914 h 1.67043 v 2.2551 2.25507 h -18.37473 -18.37476 z m 25.4143,-4.2596 c 0.6223,-1.05652 1.1306,-2.03375 1.12954,-2.17156 -0.001,-0.13758 -0.89051,-1.79154 -1.97639,-3.67495 l -1.97433,-3.42438 -4.15546,-0.0408 -4.15546,-0.0408 -2.05165,3.5869 -2.05167,3.58691 1.18563,2.09402 1.18564,2.09401 5.86631,-0.0439 5.8663,-0.0438 z"
     id="path4026"
     inkscape:connector-curvature="0" />
</svg>
